<?xml version="1.0" encoding="UTF-8" standalone="no"?>
<svg
   xmlns:dc="http://purl.org/dc/elements/1.1/"
   xmlns:cc="http://creativecommons.org/ns#"
   xmlns:rdf="http://www.w3.org/1999/02/22-rdf-syntax-ns#"
   xmlns:svg="http://www.w3.org/2000/svg"
   xmlns="http://www.w3.org/2000/svg"
   xmlns:sodipodi="http://sodipodi.sourceforge.net/DTD/sodipodi-0.dtd"
   xmlns:inkscape="http://www.inkscape.org/namespaces/inkscape"
   sodipodi:docname="Découpage joints caoutchouc 1.svg"
   inkscape:version="1.0 (4035a4fb49, 2020-05-01)"
   id="svg8"
   version="1.1"
   viewBox="0 0 115 140.60956"
   height="140.60956mm"
   width="115mm">
  <defs
     id="defs2">
    <inkscape:path-effect
       only_selected="false"
       apply_with_weight="true"
       apply_no_weight="true"
       helper_size="0"
       steps="2"
       weight="33.333333"
       lpeversion="1"
       is_visible="true"
       id="path-effect993"
       effect="bspline" />
  </defs>
  <sodipodi:namedview
     inkscape:document-rotation="0"
     fit-margin-bottom="2"
     fit-margin-right="2"
     fit-margin-left="2"
     fit-margin-top="2"
     inkscape:snap-bbox-midpoints="true"
     inkscape:snap-bbox-edge-midpoints="false"
     inkscape:bbox-nodes="false"
     inkscape:snap-bbox="true"
     inkscape:snap-path-clip="true"
     inkscape:guide-bbox="true"
     showguides="true"
     inkscape:snap-nodes="false"
     inkscape:window-maximized="1"
     inkscape:window-y="-8"
     inkscape:window-x="-8"
     inkscape:window-height="1137"
     inkscape:window-width="1920"
     showgrid="false"
     inkscape:current-layer="layer1"
     inkscape:document-units="mm"
     inkscape:cy="208.31428"
     inkscape:cx="251.61929"
     inkscape:zoom="1.4376203"
     inkscape:pageshadow="2"
     inkscape:pageopacity="0.0"
     borderopacity="1.0"
     bordercolor="#666666"
     pagecolor="#ffffff"
     id="base">
    <inkscape:grid
       originy="-84.489185"
       originx="-11.023651"
       id="grid836"
       type="xygrid" />
  </sodipodi:namedview>
  <metadata
     id="metadata5">
    <rdf:RDF>
      <cc:Work
         rdf:about="">
        <dc:format>image/svg+xml</dc:format>
        <dc:type
           rdf:resource="http://purl.org/dc/dcmitype/StillImage" />
        <dc:title></dc:title>
      </cc:Work>
    </rdf:RDF>
  </metadata>
  <g
     transform="translate(-11.023652,-92.251194)"
     id="layer1"
     inkscape:groupmode="layer"
     inkscape:label="Calque 1">
    <circle
       r="0"
       cy="181.86868"
       cx="39.199608"
       id="path896-7"
       style="fill:none;stroke:#ff0000;stroke-width:0.01;stroke-miterlimit:4;stroke-dasharray:none;stroke-opacity:1" />
    <circle
       r="0"
       cy="181.86868"
       cx="39.199608"
       id="path896-5"
       style="fill:none;stroke:#ff0000;stroke-width:0.01;stroke-miterlimit:4;stroke-dasharray:none;stroke-opacity:1" />
    <circle
       r="0"
       cy="181.86868"
       cx="39.199608"
       id="path896-3"
       style="fill:none;stroke:#ff0000;stroke-width:0.01;stroke-miterlimit:4;stroke-dasharray:none;stroke-opacity:1" />
    <path
       d="m 59.008427,166.19688 a 19,19 0 0 1 -6.932672,-25.9571 19,19 0 0 1 25.955498,-6.93868 19,19 0 0 1 6.944676,25.95389 19,19 0 0 1 -25.952285,6.95068"
       style="fill:none;stroke:#000000;stroke-width:0.02;stroke-miterlimit:4;stroke-dasharray:none;stroke-opacity:1"
       id="path129" />
    <path
       d="m 57.506025,168.79357 a 22,22 0 0 1 -8.027305,-30.05559 22,22 0 0 1 30.053734,-8.03426 22,22 0 0 1 8.041204,30.05188 22,22 0 0 1 -30.050014,8.04815"
       style="fill:none;stroke:#000000;stroke-width:0.02;stroke-miterlimit:4;stroke-dasharray:none;stroke-opacity:1"
       id="path954" />
    <path
       transform="rotate(90)"
       d="m 208.36743,-123.41696 h 22.48663 v 75.386626 h -22.48663 z"
       style="fill:none;stroke:#000000;stroke-width:0.02;stroke-miterlimit:4;stroke-dasharray:none;stroke-opacity:1"
       id="rect960" />
    <path
       d="m 35.536263,116.76381 h 65.974777 v 65.97477 H 35.536263 Z"
       style="fill:none;stroke:#000000;stroke-width:0.02;stroke-miterlimit:4;stroke-dasharray:none;stroke-opacity:1"
       id="rect1001" />
    <path
       d="M 13.044865,94.272408 H 124.00244 V 205.22999 H 13.044865 Z"
       style="fill:none;stroke:#000000;stroke-width:0.02;stroke-miterlimit:4;stroke-dasharray:none;stroke-opacity:1"
       id="rect1001-5" />
    <path
       d="m 21.031066,107.72406 a 4,4 0 0 1 -1.45951,-5.46465 4,4 0 0 1 5.464315,-1.46078 4,4 0 0 1 1.462037,5.46398 4,4 0 0 1 -5.463639,1.4633"
       style="fill:none;stroke:#000000;stroke-width:0.02;stroke-miterlimit:4;stroke-dasharray:none;stroke-opacity:1"
       id="path1020" />
    <path
       d="m 112.03107,107.72406 a 4,4 0 0 1 -1.45951,-5.46465 4,4 0 0 1 5.46431,-1.46078 4,4 0 0 1 1.46204,5.46398 4,4 0 0 1 -5.46364,1.4633"
       style="fill:none;stroke:#000000;stroke-width:0.02;stroke-miterlimit:4;stroke-dasharray:none;stroke-opacity:1"
       id="path1020-3" />
    <path
       d="m 66.531068,107.72406 a 4,4 0 0 1 -1.45951,-5.46465 4,4 0 0 1 5.464315,-1.46078 4,4 0 0 1 1.462037,5.46398 4,4 0 0 1 -5.463639,1.4633"
       style="fill:none;stroke:#000000;stroke-width:0.02;stroke-miterlimit:4;stroke-dasharray:none;stroke-opacity:1"
       id="path1020-5" />
    <path
       d="m 21.031066,153.22406 a 4,4 0 0 1 -1.45951,-5.46465 4,4 0 0 1 5.464315,-1.46078 4,4 0 0 1 1.462037,5.46398 4,4 0 0 1 -5.463639,1.4633"
       style="fill:none;stroke:#000000;stroke-width:0.02;stroke-miterlimit:4;stroke-dasharray:none;stroke-opacity:1"
       id="path1020-6" />
    <path
       d="m 112.03108,153.22406 a 4,4 0 0 1 -1.45951,-5.46465 4,4 0 0 1 5.46431,-1.46078 4,4 0 0 1 1.46204,5.46398 4,4 0 0 1 -5.46364,1.4633"
       style="fill:none;stroke:#000000;stroke-width:0.02;stroke-miterlimit:4;stroke-dasharray:none;stroke-opacity:1"
       id="path1020-3-2" />
    <path
       d="m 21.031066,198.72406 a 4,4 0 0 1 -1.45951,-5.46465 4,4 0 0 1 5.464315,-1.46078 4,4 0 0 1 1.462037,5.46398 4,4 0 0 1 -5.463639,1.4633"
       style="fill:none;stroke:#000000;stroke-width:0.02;stroke-miterlimit:4;stroke-dasharray:none;stroke-opacity:1"
       id="path1020-9" />
    <path
       d="m 112.03107,198.72406 a 4,4 0 0 1 -1.45951,-5.46465 4,4 0 0 1 5.46431,-1.46078 4,4 0 0 1 1.46204,5.46398 4,4 0 0 1 -5.46364,1.4633"
       style="fill:none;stroke:#000000;stroke-width:0.02;stroke-miterlimit:4;stroke-dasharray:none;stroke-opacity:1"
       id="path1020-3-1" />
    <path
       d="m 66.531068,198.72406 a 4,4 0 0 1 -1.45951,-5.46465 4,4 0 0 1 5.464315,-1.46078 4,4 0 0 1 1.462037,5.46398 4,4 0 0 1 -5.463639,1.4633"
       style="fill:none;stroke:#000000;stroke-width:0.02;stroke-miterlimit:4;stroke-dasharray:none;stroke-opacity:1"
       id="path1020-5-2" />
  </g>
</svg>
